<svg width="200" height="200" viewBox="0 0 200 200" fill="none" xmlns="http://www.w3.org/2000/svg">
<path opacity="0.4" d="M100.005 199.711C155.231 199.677 199.998 195.707 199.995 190.844C199.992 185.981 155.22 182.066 99.9946 182.1C44.7691 182.134 0.00241078 186.103 0.00538464 190.966C0.0083585 195.829 44.7799 199.744 100.005 199.711Z" fill="#E7EBF3"/>
<path d="M69.4766 187.06H14.6654C14.6654 187.06 6.80874 172.181 13.49 166.244C22.4602 158.254 34.9567 168.076 35.266 168.369C35.0804 167.783 10.0716 144.137 27.1269 131.239C47.811 115.596 69.4766 187.06 69.4766 187.06Z" fill="#E7EBF3"/>
<path d="M55.248 187.061H54.32C52.2167 176.506 47.948 158.914 41.4524 148.652C41.2668 148.432 41.3286 148.066 41.5761 147.919C41.7617 147.772 42.071 147.772 42.1947 147.992C48.8141 158.474 53.0828 176.432 55.248 187.061Z" fill="#FCFDFE"/>
<path d="M56.2993 166.83C56.0518 166.83 55.8044 166.61 55.8044 166.244V157.008C55.8044 156.715 55.99 156.421 56.2993 156.421C56.6086 156.421 56.7942 156.641 56.7942 157.008V166.317C56.7942 166.61 56.5467 166.83 56.2993 166.83Z" fill="#FCFDFE"/>
<path d="M29.141 187.061H28.0274C25.2436 182.15 23.202 178.045 23.1402 178.045C23.0164 177.825 23.0783 177.458 23.3258 177.312C23.5732 177.165 23.8207 177.239 23.9444 177.532C23.9444 177.532 26.1715 181.93 29.141 187.061Z" fill="#FCFDFE"/>
<path d="M47.8354 163.486H46.7219C43.938 158.575 29.0646 139.355 29.0027 139.355C28.879 139.135 28.9409 138.768 29.1883 138.622C29.4358 138.475 29.6832 138.548 29.807 138.841C29.807 138.841 44.866 158.355 47.8354 163.486Z" fill="#FCFDFE"/>
<path d="M177.984 187.061H144.937C144.937 187.061 150.002 132.545 176.655 138.458C196.831 142.967 177.984 187.061 177.984 187.061Z" fill="#E7EBF3"/>
<path d="M172.657 153.166C167.046 162.89 163.277 176.682 161.1 186.505H159.844C162.021 176.583 165.874 162.294 171.652 152.372C171.819 151.975 172.238 151.975 172.489 152.174C172.824 152.372 172.824 152.868 172.657 153.166Z" fill="#FCFDFE"/>
<path d="M168.72 176.682C168.553 176.682 168.385 176.583 168.218 176.384C167.966 176.087 168.05 175.591 168.301 175.293L177.932 165.668C178.183 165.371 178.602 165.47 178.853 165.767C179.104 166.065 179.02 166.561 178.769 166.859L169.139 176.484C168.971 176.583 168.888 176.682 168.72 176.682Z" fill="#FCFDFE"/>
<path d="M131.535 186C135.091 186 138 183.003 138 179.339V58.9868V45.6591C138 41.9946 135.091 39 131.535 39H65.4651C61.9063 39 59 41.9946 59 45.6591V179.339C59 183.003 61.9063 186 65.4651 186H131.535Z" fill="white" stroke="#030047" stroke-width="2" stroke-miterlimit="10" stroke-linecap="round" stroke-linejoin="round"/>
<path d="M133 55.0212C133 52.0212 134.5 43.5212 122 44.0212" stroke="#030047" stroke-width="2" stroke-linecap="round" stroke-linejoin="round"/>
<path d="M154.8 25L145.8 32.5" stroke="#D5006C" stroke-width="2" stroke-linecap="round" stroke-linejoin="round"/>
<path d="M144.055 23L141.745 28.3415" stroke="#D5006C" stroke-width="2" stroke-linecap="round" stroke-linejoin="round"/>
<path d="M154.8 35.6084L149.11 36.8317" stroke="#D5006C" stroke-width="2" stroke-linecap="round" stroke-linejoin="round"/>
<path d="M59 160.004H137.862V179.317C137.862 182.873 134.98 185.755 131.425 185.755H65.4377C61.8823 185.755 59 182.873 59 179.317V160.004Z" fill="#009BDD" stroke="#030047" stroke-width="2"/>
<circle cx="99" cy="47" r="3" fill="#009BDD"/>
<path d="M87 173.238H111" stroke="white" stroke-width="4.82831" stroke-miterlimit="10" stroke-linecap="round" stroke-linejoin="round"/>
<path d="M116.887 101.934C116.887 111.798 108.749 119.822 98.6743 119.822C88.5997 119.822 80.4614 111.798 80.4614 101.934C80.4614 92.072 88.5997 84.0475 98.6743 84.0475C108.749 84.0475 116.887 92.072 116.887 101.934Z" fill="#FF4B4B" stroke="black" stroke-width="2"/>
<path fill-rule="evenodd" clip-rule="evenodd" d="M108.121 97.1214C109.293 95.9498 109.293 94.0503 108.121 92.8787C106.95 91.7072 105.05 91.7072 103.879 92.8787L99 97.7573L94.1214 92.8787C92.9498 91.7072 91.0503 91.7072 89.8787 92.8787C88.7071 94.0503 88.7071 95.9498 89.8787 97.1214L94.7574 102L89.8787 106.879C88.7071 108.05 88.7071 109.95 89.8787 111.121C91.0503 112.293 92.9498 112.293 94.1214 111.121L98.9999 106.243L103.879 111.121C105.05 112.293 106.95 112.293 108.121 111.121C109.293 109.95 109.293 108.05 108.121 106.879L103.243 102L108.121 97.1214Z" fill="white"/>
</svg>
