<svg width="200" height="200" viewBox="0 0 200 200" fill="none" xmlns="http://www.w3.org/2000/svg">
<path opacity="0.4" d="M100.093 176.645C148.185 176.616 187.168 172.654 187.165 167.796C187.162 162.938 148.174 159.024 100.083 159.053C51.9911 159.082 13.0078 163.044 13.0108 167.902C13.0137 172.76 52.0019 176.675 100.093 176.645Z" fill="#E4E4EF"/>
<path d="M92.8525 165.519H17.3296C17.3296 165.519 6.50415 148.215 15.7101 141.311C28.0699 132.02 45.2884 143.442 45.7146 143.783C45.4589 143.101 11 115.603 34.5 100.603C63 82.4119 92.8525 165.519 92.8525 165.519Z" fill="#E4E4EF"/>
<path d="M73.2471 165.519H71.9685C69.0704 153.244 63.1888 132.787 54.2385 120.853C53.9828 120.597 54.0681 120.171 54.409 120.001C54.6647 119.83 55.0909 119.83 55.2614 120.086C64.3821 132.275 70.2637 153.159 73.2471 165.519Z" fill="white"/>
<path d="M74.6961 141.993C74.3551 141.993 74.0142 141.737 74.0142 141.311V130.571C74.0142 130.23 74.2699 129.889 74.6961 129.889C75.1223 129.889 75.378 130.144 75.378 130.571V141.396C75.378 141.737 75.037 141.993 74.6961 141.993Z" fill="white"/>
<path d="M37.2759 165.519H35.7416C31.9058 159.808 29.0928 155.034 29.0076 155.034C28.8371 154.779 28.9224 154.353 29.2633 154.182C29.6043 154.012 29.9452 154.097 30.1157 154.438C30.1157 154.438 33.1844 159.552 37.2759 165.519Z" fill="white"/>
<path d="M63.0343 138.103H61.5C57.6642 132.392 37.1705 110.041 37.0852 110.041C36.9148 109.785 37 109.359 37.341 109.189C37.6819 109.018 38.0229 109.103 38.1934 109.444C38.1934 109.444 58.9428 132.137 63.0343 138.103Z" fill="white"/>
<path d="M179.295 165.051H146C146 165.051 151.103 119.542 177.957 124.478C198.285 128.242 179.295 165.051 179.295 165.051Z" fill="#E4E4EF"/>
<path d="M173.691 136.942C168.086 145.141 164.321 156.769 162.146 165.051H160.891C163.066 156.685 166.914 144.639 172.687 136.273C172.854 135.939 173.272 135.939 173.523 136.106C173.858 136.273 173.858 136.691 173.691 136.942Z" fill="white"/>
<path d="M169.758 156.769C169.591 156.769 169.423 156.685 169.256 156.518C169.005 156.267 169.089 155.849 169.34 155.598L178.96 147.483C179.211 147.232 179.629 147.316 179.88 147.567C180.131 147.818 180.048 148.236 179.797 148.487L170.176 156.602C170.009 156.685 169.925 156.769 169.758 156.769Z" fill="white"/>
<path d="M153.8 30L144.8 37.5" stroke="#D5006C" stroke-width="2" stroke-linecap="round" stroke-linejoin="round"/>
<path d="M143.055 28L140.745 33.3415" stroke="#D5006C" stroke-width="2" stroke-linecap="round" stroke-linejoin="round"/>
<path d="M153.8 40.6084L148.11 41.8317" stroke="#D5006C" stroke-width="2" stroke-linecap="round" stroke-linejoin="round"/>
<path fill-rule="evenodd" clip-rule="evenodd" d="M144.125 74.8174L153.918 72.1935C155.233 71.841 156.588 72.6308 156.944 73.96L162.099 93.1982C162.455 94.5274 161.677 95.8888 160.361 96.2414L150.569 98.8652C148.284 99.4774 146.612 101.421 146.309 103.815C145.984 106.328 147.109 108.65 149.16 109.847L157.957 114.981C158.524 115.312 158.939 115.855 159.11 116.494C159.281 117.133 159.194 117.811 158.868 118.381L149.037 135.597C148.358 136.785 146.85 137.189 145.668 136.499L136.87 131.366C134.818 130.166 132.268 130.346 130.37 131.814C128.378 133.349 127.549 135.784 128.167 138.09L130.815 147.975C131.171 149.304 130.393 150.665 129.077 151.018L110.018 156.125C108.703 156.477 107.348 155.687 106.992 154.358L104.343 144.474C103.725 142.168 101.79 140.474 99.4122 140.157C96.9188 139.813 94.6223 140.939 93.4433 143.002L88.391 151.846C87.7121 153.035 86.2045 153.439 85.0222 152.749L67.9005 142.756C67.333 142.425 66.9181 141.881 66.747 141.242C66.5758 140.604 66.6635 139.926 66.9894 139.355L72.0416 130.511C73.2183 128.449 73.0314 125.876 71.5662 123.958C70.0342 121.94 67.6142 121.093 65.3296 121.705L55.5372 124.329C54.2216 124.681 52.8667 123.892 52.5105 122.562L47.3556 103.324C46.9995 101.995 47.778 100.634 49.0936 100.281L58.886 97.6572C61.1706 97.045 62.843 95.1018 63.1453 92.7076C63.4705 90.194 62.346 87.8726 60.2947 86.6754L51.4983 81.5417C50.9308 81.2105 50.5159 80.6673 50.3447 80.0285C50.1736 79.3897 50.2612 78.7118 50.5871 78.1412L60.4182 60.9258C61.0971 59.7371 62.6047 59.3331 63.787 60.0232L72.5846 65.1565C74.6359 66.3537 77.1867 66.1762 79.085 64.7085C81.0773 63.1729 81.9062 60.7383 81.2882 58.4322L78.6397 48.5477C78.2835 47.2185 79.062 45.8571 80.3777 45.5046L99.4366 40.3977C100.752 40.0452 102.107 40.835 102.463 42.1642L105.112 52.0487C105.73 54.3548 107.665 56.0488 110.043 56.3656C112.536 56.7094 114.832 55.5831 116.012 53.5203L121.064 44.6759C121.743 43.4872 123.25 43.0832 124.433 43.7732L141.554 53.7667C142.122 54.0979 142.537 54.6411 142.708 55.2799C142.879 55.9186 142.791 56.5966 142.465 57.1672L137.413 66.0116C136.236 68.0737 136.423 70.6464 137.889 72.5644C139.421 74.5828 141.841 75.4295 144.125 74.8174ZM88.0508 102.73C90.5419 112.026 100.028 117.563 109.238 115.095C118.448 112.627 123.895 103.09 121.404 93.7927C118.913 84.4958 109.427 78.9599 100.217 81.4277C91.0066 83.8956 85.5597 93.4327 88.0508 102.73Z" fill="white"/>
<path d="M160.361 96.2414L160.62 97.2073L160.361 96.2414ZM150.569 98.8652L150.31 97.8993L150.569 98.8652ZM146.309 103.815L147.301 103.943L147.302 103.94L146.309 103.815ZM149.16 109.847L148.656 110.711L149.16 109.847ZM157.957 114.981L158.461 114.117L158.461 114.117L157.957 114.981ZM158.868 118.381L157.999 117.885L157.999 117.885L158.868 118.381ZM149.037 135.597L149.905 136.093L149.905 136.092L149.037 135.597ZM145.668 136.499L146.172 135.636L146.172 135.636L145.668 136.499ZM136.87 131.366L136.365 132.229L136.366 132.23L136.87 131.366ZM130.37 131.814L130.98 132.606L130.981 132.605L130.37 131.814ZM129.077 151.018L128.818 150.052L129.077 151.018ZM110.018 156.125L110.277 157.091L110.018 156.125ZM99.4122 140.157L99.2757 141.147L99.2801 141.148L99.4122 140.157ZM93.4433 143.002L92.5751 142.506L92.5749 142.506L93.4433 143.002ZM88.391 151.846L87.5227 151.35L87.5227 151.351L88.391 151.846ZM85.0222 152.749L84.5181 153.613L84.5182 153.613L85.0222 152.749ZM67.9005 142.756L68.4046 141.892L68.4046 141.892L67.9005 142.756ZM66.9894 139.355L66.121 138.859L66.121 138.859L66.9894 139.355ZM72.0416 130.511L72.9099 131.007L72.9101 131.006L72.0416 130.511ZM71.5662 123.958L70.7697 124.563L70.7715 124.565L71.5662 123.958ZM63.1453 92.7076L62.1536 92.5793L62.1532 92.5823L63.1453 92.7076ZM60.2947 86.6754L59.7906 87.5391L60.2947 86.6754ZM51.4983 81.5417L50.9942 82.4054L51.4983 81.5417ZM50.5871 78.1412L51.4555 78.6372L51.4555 78.6371L50.5871 78.1412ZM60.4182 60.9258L59.5499 60.4299L59.5499 60.4299L60.4182 60.9258ZM63.787 60.0232L63.283 60.8868L63.2831 60.8869L63.787 60.0232ZM72.5846 65.1565L73.0887 64.2929L73.0886 64.2928L72.5846 65.1565ZM79.085 64.7085L78.4745 63.9165L78.4734 63.9174L79.085 64.7085ZM80.3777 45.5046L80.6365 46.4705L80.3777 45.5046ZM99.4366 40.3977L99.1778 39.4318L99.4366 40.3977ZM110.043 56.3656L110.179 55.375L110.175 55.3744L110.043 56.3656ZM116.012 53.5203L116.88 54.0166L116.88 54.0163L116.012 53.5203ZM121.064 44.6759L121.932 45.1719L121.932 45.1718L121.064 44.6759ZM124.433 43.7732L124.937 42.9096L124.937 42.9096L124.433 43.7732ZM141.554 53.7667L141.05 54.6303L141.05 54.6303L141.554 53.7667ZM142.465 57.1672L143.334 57.6632L143.334 57.6631L142.465 57.1672ZM137.413 66.0116L136.545 65.5156L136.545 65.516L137.413 66.0116ZM137.889 72.5644L138.685 71.9598L138.683 71.9574L137.889 72.5644ZM153.659 71.2276L143.866 73.8514L144.384 75.7833L154.176 73.1594L153.659 71.2276ZM157.91 73.7011C157.413 71.8467 155.516 70.7299 153.659 71.2276L154.176 73.1594C154.95 72.9521 155.763 73.4148 155.978 74.2188L157.91 73.7011ZM163.065 92.9394L157.91 73.7011L155.978 74.2188L161.133 93.4571L163.065 92.9394ZM160.62 97.2073C162.477 96.7096 163.562 94.7938 163.065 92.9394L161.133 93.4571C161.349 94.261 160.876 95.0681 160.102 95.2754L160.62 97.2073ZM150.828 99.8311L160.62 97.2073L160.102 95.2754L150.31 97.8993L150.828 99.8311ZM147.302 103.94C147.554 101.938 148.946 100.335 150.828 99.8311L150.31 97.8993C147.622 98.6194 145.669 100.903 145.317 103.69L147.302 103.94ZM149.664 108.983C147.978 107.999 147.025 106.079 147.301 103.943L145.318 103.686C144.944 106.578 146.24 109.301 148.656 110.711L149.664 108.983ZM158.461 114.117L149.664 108.983L148.656 110.711L157.452 115.844L158.461 114.117ZM160.076 116.235C159.837 115.343 159.256 114.581 158.461 114.117L157.452 115.844C157.792 116.042 158.041 116.368 158.144 116.753L160.076 116.235ZM159.736 118.877C160.193 118.077 160.315 117.128 160.076 116.235L158.144 116.753C158.247 117.138 158.194 117.544 157.999 117.885L159.736 118.877ZM149.905 136.092L159.736 118.877L157.999 117.885L148.168 135.101L149.905 136.092ZM145.164 137.363C146.826 138.333 148.95 137.764 149.905 136.093L148.168 135.101C147.765 135.807 146.874 136.045 146.172 135.636L145.164 137.363ZM136.366 132.23L145.164 137.363L146.172 135.636L137.374 130.502L136.366 132.23ZM130.981 132.605C132.563 131.382 134.672 131.239 136.365 132.229L137.375 130.503C134.964 129.093 131.973 129.31 129.758 131.023L130.981 132.605ZM129.133 137.831C128.623 135.929 129.296 133.904 130.98 132.606L129.759 131.022C127.459 132.795 126.475 135.639 127.201 138.349L129.133 137.831ZM131.781 147.716L129.133 137.831L127.201 138.349L129.849 148.234L131.781 147.716ZM129.336 151.984C131.193 151.486 132.278 149.57 131.781 147.716L129.849 148.234C130.065 149.037 129.592 149.845 128.818 150.052L129.336 151.984ZM110.277 157.091L129.336 151.984L128.818 150.052L109.759 155.159L110.277 157.091ZM106.026 154.617C106.522 156.471 108.42 157.588 110.277 157.091L109.759 155.159C108.985 155.366 108.173 154.903 107.957 154.099L106.026 154.617ZM103.377 144.733L106.026 154.617L107.957 154.099L105.309 144.215L103.377 144.733ZM99.2801 141.148C101.26 141.412 102.864 142.819 103.377 144.733L105.309 144.215C104.586 141.516 102.32 139.535 99.5443 139.166L99.2801 141.148ZM94.3114 143.498C95.2805 141.803 97.1717 140.857 99.2757 141.147L99.5488 139.166C96.6659 138.769 93.9641 140.076 92.5751 142.506L94.3114 143.498ZM89.2593 152.343L94.3116 143.498L92.5749 142.506L87.5227 151.35L89.2593 152.343ZM84.5182 153.613C86.1806 154.583 88.3048 154.014 89.2594 152.342L87.5227 151.351C87.1195 152.057 86.2284 152.295 85.5263 151.885L84.5182 153.613ZM67.3964 143.619L84.5181 153.613L85.5263 151.886L68.4046 141.892L67.3964 143.619ZM65.7811 141.501C66.0202 142.394 66.6006 143.155 67.3965 143.619L68.4046 141.892C68.0655 141.694 67.8161 141.369 67.7129 140.984L65.7811 141.501ZM66.121 138.859C65.664 139.66 65.5419 140.609 65.7811 141.501L67.7129 140.984C67.6098 140.599 67.663 140.192 67.8577 139.851L66.121 138.859ZM71.1733 130.015L66.121 138.859L67.8577 139.851L72.9099 131.007L71.1733 130.015ZM70.7715 124.565C71.9982 126.171 72.1462 128.31 71.1731 130.015L72.9101 131.006C74.2904 128.588 74.0646 125.581 72.3609 123.351L70.7715 124.565ZM65.5884 122.671C67.4591 122.17 69.4696 122.85 70.7697 124.563L72.3627 123.353C70.5987 121.029 67.7694 120.016 65.0708 120.739L65.5884 122.671ZM55.7961 125.295L65.5884 122.671L65.0708 120.739L55.2784 123.363L55.7961 125.295ZM51.5446 122.821C52.0415 124.676 53.9387 125.792 55.7961 125.295L55.2784 123.363C54.5044 123.57 53.6919 123.108 53.4764 122.304L51.5446 122.821ZM46.3897 103.583L51.5446 122.821L53.4764 122.304L48.3216 103.065L46.3897 103.583ZM48.8348 99.3151C46.9775 99.8128 45.8928 101.729 46.3897 103.583L48.3216 103.065C48.1061 102.261 48.5785 101.454 49.3525 101.247L48.8348 99.3151ZM58.6272 96.6912L48.8348 99.3151L49.3525 101.247L59.1448 98.6231L58.6272 96.6912ZM62.1532 92.5823C61.9005 94.584 60.5089 96.187 58.6272 96.6912L59.1448 98.6231C61.8324 97.903 63.7856 95.6195 64.1375 92.8329L62.1532 92.5823ZM59.7906 87.5391C61.4773 88.5235 62.4298 90.4439 62.1536 92.5793L64.1371 92.8359C64.5111 89.9442 63.2147 87.2217 60.7988 85.8118L59.7906 87.5391ZM50.9942 82.4054L59.7906 87.5391L60.7988 85.8118L52.0023 80.6781L50.9942 82.4054ZM49.3788 80.2873C49.618 81.1799 50.1983 81.9409 50.9942 82.4054L52.0023 80.6781C51.6632 80.4802 51.4138 80.1547 51.3107 79.7697L49.3788 80.2873ZM49.7188 77.6453C49.2617 78.4455 49.1397 79.3948 49.3788 80.2873L51.3107 79.7697C51.2075 79.3847 51.2608 78.9781 51.4555 78.6372L49.7188 77.6453ZM59.5499 60.4299L49.7187 77.6453L51.4555 78.6371L61.2866 61.4217L59.5499 60.4299ZM64.2911 59.1595C62.6286 58.1892 60.5045 58.7584 59.5499 60.4299L61.2866 61.4218C61.6898 60.7158 62.5808 60.477 63.283 60.8868L64.2911 59.1595ZM73.0886 64.2928L64.291 59.1594L63.2831 60.8869L72.0807 66.0202L73.0886 64.2928ZM78.4734 63.9174C76.8922 65.1398 74.7824 65.2813 73.0887 64.2929L72.0806 66.0202C74.4895 67.4261 77.4811 67.2125 79.6966 65.4996L78.4734 63.9174ZM80.3223 58.691C80.8321 60.5937 80.1583 62.6186 78.4745 63.9165L79.6955 65.5005C81.9963 63.7272 82.9802 60.883 82.2541 58.1734L80.3223 58.691ZM77.6738 48.8065L80.3223 58.691L82.2541 58.1734L79.6056 48.2889L77.6738 48.8065ZM80.1189 44.5386C78.2615 45.0363 77.1769 46.9521 77.6738 48.8065L79.6056 48.2889C79.3902 47.4849 79.8625 46.6779 80.6365 46.4705L80.1189 44.5386ZM99.1778 39.4318L80.1189 44.5386L80.6365 46.4705L99.6954 41.3637L99.1778 39.4318ZM103.429 41.9053C102.932 40.0509 101.035 38.9341 99.1778 39.4318L99.6954 41.3637C100.469 41.1563 101.282 41.619 101.497 42.423L103.429 41.9053ZM106.078 51.7899L103.429 41.9053L101.497 42.423L104.146 52.3075L106.078 51.7899ZM110.175 55.3744C108.195 55.1106 106.59 53.7034 106.078 51.7899L104.146 52.3075C104.869 55.0063 107.135 56.987 109.91 57.3569L110.175 55.3744ZM115.143 53.0241C114.174 54.7194 112.283 55.6651 110.179 55.375L109.906 57.3563C112.789 57.7537 115.491 56.4467 116.88 54.0166L115.143 53.0241ZM120.195 44.1799L115.143 53.0243L116.88 54.0163L121.932 45.1719L120.195 44.1799ZM124.937 42.9096C123.274 41.9393 121.15 42.5085 120.195 44.18L121.932 45.1718C122.335 44.4659 123.226 44.2271 123.929 44.6369L124.937 42.9096ZM142.058 52.903L124.937 42.9096L123.929 44.6369L141.05 54.6303L142.058 52.903ZM143.674 55.0211C143.435 54.1285 142.854 53.3675 142.058 52.903L141.05 54.6303C141.389 54.8282 141.639 55.1537 141.742 55.5387L143.674 55.0211ZM143.334 57.6631C143.791 56.8629 143.913 55.9136 143.674 55.0211L141.742 55.5387C141.845 55.9237 141.792 56.3303 141.597 56.6712L143.334 57.6631ZM138.282 66.5076L143.334 57.6632L141.597 56.6712L136.545 65.5156L138.282 66.5076ZM138.683 71.9574C137.457 70.3516 137.309 68.2127 138.282 66.5072L136.545 65.516C135.164 67.9348 135.39 70.9412 137.094 73.1715L138.683 71.9574ZM143.866 73.8514C141.996 74.3527 139.985 73.6726 138.685 71.9598L137.092 73.169C138.856 75.4931 141.685 76.5064 144.384 75.7833L143.866 73.8514ZM108.979 114.129C100.311 116.451 91.3671 111.243 89.0167 102.471L87.0848 102.988C89.7166 112.81 99.7445 118.674 109.497 116.061L108.979 114.129ZM120.438 94.0516C122.788 102.823 117.647 111.806 108.979 114.129L109.497 116.061C119.249 113.448 125.001 103.356 122.37 93.5339L120.438 94.0516ZM100.476 82.3936C109.144 80.071 118.087 85.2795 120.438 94.0516L122.37 93.5339C119.738 83.712 109.71 77.8487 99.958 80.4618L100.476 82.3936ZM89.0167 102.471C86.6662 93.6988 91.8074 84.7163 100.476 82.3936L99.958 80.4618C90.2059 83.0749 84.4531 93.1666 87.0848 102.988L89.0167 102.471Z" fill="#2D3338"/>
<path d="M82.3311 75C79.6922 76.3261 74.3424 80.8207 74.0544 88.1907" stroke="#030047" stroke-width="2" stroke-linecap="round" stroke-linejoin="round"/>
<path d="M97.6393 71.8086C83.1662 75.6867 74.6067 90.6738 78.5213 105.283C82.4359 119.893 97.3421 128.592 111.815 124.714C126.288 120.836 134.848 105.849 130.933 91.2394C127.019 76.63 112.112 67.9306 97.6393 71.8086Z" fill="#009BDD"/>
<path d="M109.238 115.095C100.028 117.562 90.5419 112.026 88.0508 102.73C85.5597 93.4326 91.0067 83.8955 100.217 81.4277C109.427 78.9598 118.913 84.4957 121.404 93.7927C123.895 103.09 118.448 112.627 109.238 115.095Z" fill="#E4E4EF"/>
<circle cx="138" cy="143" r="21" fill="#FFB927" stroke="#030047" stroke-width="2"/>
<path d="M137.889 148.427C137.104 148.427 136.524 148.631 136.114 149.007C135.705 149.382 135.5 149.962 135.5 150.713C135.5 151.43 135.705 152.01 136.114 152.386C136.524 152.795 137.104 153 137.855 153C138.606 153 139.152 152.795 139.561 152.386C139.971 151.976 140.176 151.43 140.176 150.713C140.176 149.997 139.971 149.416 139.561 149.007C139.22 148.631 138.64 148.427 137.889 148.427Z" fill="white"/>
<path d="M136.2 144.47C136.248 145.387 137.005 146.106 137.923 146.106C138.842 146.106 139.599 145.387 139.647 144.47L140.123 135.318C140.189 134.058 139.185 133 137.923 133C136.662 133 135.658 134.058 135.723 135.318L136.2 144.47Z" fill="white"/>
</svg>
