<svg width="200" height="200" viewBox="0 0 200 200" fill="none" xmlns="http://www.w3.org/2000/svg">
<g clip-path="url(#clip0_911_52806)">
<path d="M122.837 74.693C117.219 64.8808 102.747 62.7054 98.5981 60.965C88.395 56.6083 83.8917 41.4117 79.6629 38.2543C75.7008 35.2723 74.3532 38.0096 74.3532 38.0096C74.3532 38.0096 72.3969 37.9467 71.8196 39.4964C71.8196 39.4964 68.0554 37.1622 66.9975 38.8665C65.9276 40.5159 72.6839 43.7353 73.43 45.5907L72.2359 46.4054C71.3791 46.4067 69.0956 44.5756 68.2825 45.8291C67.4027 47.0388 71.8693 49.9761 73.2882 50.721C74.7071 51.4658 74.8393 53.388 77.0631 54.9446C79.287 56.5011 80.6494 65.397 88.0682 70.0874C95.4752 74.723 115.798 79.8995 115.798 79.8995L122.837 74.693Z" fill="white"/>
<path d="M67.8201 46.3238C67.7366 45.9394 67.8411 45.6317 67.9695 45.4338C68.7517 44.3011 70.2134 44.98 71.2871 45.4507C71.6085 45.615 71.9846 45.7683 72.2274 45.8338L72.9767 45.3384C72.4932 44.691 71.2693 43.792 70.1788 42.9808C67.9977 41.3582 65.8953 39.8345 66.7512 38.515C67.8211 36.8656 70.6231 38.1906 71.7326 38.8261C72.4173 37.7705 73.688 37.5708 74.1925 37.5261C74.4065 37.1963 74.925 36.6902 75.7887 36.4582C76.9928 36.2147 78.4068 36.674 79.9759 37.847C81.545 39.0201 83.12 41.7969 85.0093 44.9688C88.3045 50.6651 92.4264 57.7992 98.8444 60.5139C99.6633 60.8642 100.999 61.2247 102.479 61.7278C108.53 63.5422 118.721 66.5259 123.24 74.4393L123.422 74.7466L115.969 80.1515L115.793 80.1298C114.943 79.9004 95.2935 74.9316 87.9413 70.285C83.0438 67.2055 80.7845 62.3315 79.1091 58.8298C78.2774 57.1064 77.6148 55.6354 76.9362 55.1421C75.6576 54.2542 75.0358 53.2335 74.5164 52.4214C74.0876 51.763 73.7494 51.2582 73.228 50.9623C73.0638 50.9955 68.2926 48.2345 67.8201 46.3238C67.8321 46.3787 67.8201 46.3238 67.8201 46.3238ZM74.0265 45.6993L72.485 46.7562L72.3756 46.7783C72.0353 46.7898 71.5258 46.5489 71.0163 46.308C69.9427 45.8372 69.0691 45.498 68.7148 45.9709C68.7148 45.9709 68.672 46.0369 68.7078 46.2016C68.9465 47.2997 71.9703 49.3824 73.5892 50.2588C74.3106 50.6861 74.7394 51.3445 75.2349 52.0468C75.7423 52.8041 76.2856 53.726 77.4189 54.4713C78.2975 55.0961 78.9481 56.5122 79.8943 58.4991C81.503 61.957 83.7265 66.6662 88.424 69.6142C95.3095 73.9539 113.781 78.7597 115.845 79.3168L122.365 74.6164C117.898 67.2082 108.138 64.3667 102.275 62.6289C100.685 62.1479 99.4045 61.7763 98.5309 61.4371C91.8581 58.602 87.6456 51.3142 84.2719 45.5192C82.4612 42.446 80.9101 39.779 79.4743 38.6936C78.1052 37.6521 76.9221 37.2035 76.0036 37.4465C75.1826 37.6125 74.8213 38.3161 74.8213 38.3161L74.7049 38.569L74.4193 38.5694C74.4193 38.5694 72.7605 38.5609 72.2758 39.748L72.0976 40.2426L71.6429 39.9906C70.7762 39.4207 68.0956 38.1285 67.4109 39.1841C66.9829 39.8438 69.2187 41.4553 70.6426 42.4857C72.1331 43.56 73.5022 44.6016 73.8693 45.5018L74.0265 45.6993Z" fill="#030047"/>
<path opacity="0.4" d="M100.005 199.936C155.23 199.902 199.997 196.074 199.994 191.386C199.992 186.698 155.22 182.925 99.9946 182.959C44.7691 182.993 0.00232042 186.82 0.00518281 191.508C0.0080452 196.196 44.7795 199.969 100.005 199.936Z" fill="#E7EBF3"/>
<path d="M69.4761 187.743H14.6649C14.6649 187.743 6.80822 173.399 13.4895 167.675C22.4597 159.973 34.9562 169.441 35.2655 169.724C35.0799 169.159 10.0711 146.364 27.1264 133.93C47.8104 118.85 69.4761 187.743 69.4761 187.743Z" fill="#E4E4EF"/>
<path d="M55.2492 187.743H54.3213C52.2179 177.567 47.9493 160.609 41.4536 150.716C41.268 150.504 41.3299 150.151 41.5773 150.01C41.7629 149.868 42.0723 149.868 42.196 150.08C48.8154 160.185 53.084 177.497 55.2492 187.743Z" fill="white"/>
<path d="M56.3015 168.24C56.0541 168.24 55.8066 168.028 55.8066 167.675V158.772C55.8066 158.489 55.9922 158.207 56.3015 158.207C56.6109 158.207 56.7965 158.419 56.7965 158.772V167.746C56.7965 168.028 56.549 168.24 56.3015 168.24Z" fill="white"/>
<path d="M29.1408 187.742H28.0272C25.2434 183.008 23.2019 179.051 23.14 179.051C23.0163 178.839 23.0781 178.486 23.3256 178.345C23.573 178.203 23.8205 178.274 23.9442 178.557C23.9442 178.557 26.1713 182.796 29.1408 187.742Z" fill="white"/>
<path d="M47.834 165.016H46.7205C43.9366 160.282 29.0632 141.754 29.0013 141.754C28.8776 141.542 28.9394 141.189 29.1869 141.047C29.4344 140.906 29.6818 140.977 29.8055 141.259C29.8055 141.259 44.8646 160.07 47.834 165.016Z" fill="white"/>
<path d="M177.986 187.743H144.939C144.939 187.743 150.004 135.19 176.657 140.89C196.834 145.237 177.986 187.743 177.986 187.743Z" fill="#E4E4EF"/>
<path d="M172.658 155.068C167.048 164.442 163.279 177.738 161.102 187.207H159.846C162.023 177.642 165.875 163.868 171.654 154.303C171.821 153.92 172.24 153.92 172.491 154.112C172.826 154.303 172.826 154.781 172.658 155.068Z" fill="white"/>
<path d="M168.721 177.738C168.553 177.738 168.386 177.642 168.218 177.451C167.967 177.164 168.051 176.686 168.302 176.399L177.932 167.121C178.184 166.834 178.602 166.929 178.854 167.216C179.105 167.503 179.021 167.981 178.77 168.268L169.139 177.547C168.972 177.642 168.888 177.738 168.721 177.738Z" fill="white"/>
<path d="M13.2148 96.0669L22.7248 87.8643" stroke="#F9FBFE"/>
<path d="M13.2148 91.2421L22.7248 83.522" stroke="#F9FBFE"/>
<path d="M149.137 155.635L159.75 168.312L135.838 189.673C135.838 189.673 133.02 186.694 134.855 183.652C135.772 182.067 136.624 179.278 136.82 176.236C136.82 176.045 136.82 175.792 136.886 175.602C136.951 174.841 136.951 174.081 136.886 173.32C136.886 173.13 136.82 172.876 136.82 172.686C136.624 170.975 136.165 169.327 135.379 167.932L149.137 155.635Z" fill="#030047"/>
<path d="M143.044 172.495C141.013 172.749 138.917 173.066 136.886 173.383C136.886 173.193 136.82 172.939 136.82 172.749C138.851 172.495 140.882 172.178 142.913 171.925C143.306 171.861 143.437 172.432 143.044 172.495Z" fill="white"/>
<path d="M142.453 176.045C140.619 176.108 138.719 176.172 136.885 176.235C136.885 176.045 136.885 175.791 136.95 175.601C138.785 175.538 140.685 175.475 142.519 175.411C142.912 175.411 142.847 176.045 142.453 176.045Z" fill="white"/>
<path d="M103.342 171.481L102.228 187.772H69.668C69.668 187.772 69.668 183.778 73.1402 182.701C74.9091 182.194 77.5296 180.609 79.8226 178.581C79.9536 178.454 80.1502 178.327 80.2812 178.137C80.8053 177.63 81.3949 177.059 81.8535 176.489C81.9846 176.299 82.1156 176.172 82.2466 175.982C83.2948 174.587 84.1465 173.066 84.4741 171.545H103.342V171.481Z" fill="#030047"/>
<path d="M138.131 133.45C134.789 122.041 129.352 90.1577 129.352 90.1577L110.549 94.3412C110.025 92.503 109.632 91.3621 109.632 91.3621L90.6331 98.3979C90.6331 113.23 82.1163 172.306 82.1163 172.306L106.75 175.665C106.75 175.665 109.567 149.867 111.401 130.154C118.345 153.1 130.072 169.834 134.789 172.686L152.74 158.424C152.74 158.361 141.406 144.86 138.131 133.45Z" fill="white"/>
<path d="M107.208 176.172L81.5265 172.686L81.592 172.242C81.6575 171.671 90.1088 112.976 90.1088 98.3976V98.0807L109.894 90.728L110.025 91.235C110.025 91.235 110.353 92.2492 110.811 93.8338L129.679 89.6504L129.745 90.1575C129.81 90.4744 135.248 122.167 138.523 133.45C141.799 144.606 153.002 158.044 153.068 158.17L153.395 158.551L134.789 173.319L134.462 173.129C129.941 170.467 118.738 154.811 111.597 132.689C109.763 151.832 107.208 175.538 107.142 175.791L107.208 176.172ZM82.6402 171.862L106.291 175.031C106.684 171.355 109.173 148.029 110.877 130.027L111.139 127.555L111.859 129.964C118.738 152.592 130.007 168.819 134.724 171.988L152.019 158.234C150.185 155.952 140.554 143.845 137.541 133.513C134.462 122.991 129.548 94.7212 128.827 90.6645L110.09 94.7846L109.959 94.3409C109.632 93.2 109.37 92.376 109.239 91.8689L91.0915 98.7145C90.9605 113.166 83.4264 166.284 82.6402 171.862Z" fill="#030047"/>
<path d="M124.175 94.9746C123.979 94.9746 123.782 94.8478 123.716 94.6577C123.454 94.0872 123.192 93.5168 122.93 92.9463C122.799 92.6927 122.93 92.4392 123.192 92.3124C123.454 92.1857 123.716 92.3124 123.847 92.566C124.11 93.1364 124.372 93.7069 124.634 94.3407C124.765 94.5943 124.634 94.8478 124.372 94.9746C124.306 94.9112 124.241 94.9746 124.175 94.9746Z" fill="#030047"/>
<path d="M142.848 156.395C142.651 156.395 142.52 156.332 142.389 156.142C141.734 155.064 141.079 153.86 140.424 152.592C140.293 152.338 140.424 152.085 140.621 151.958C140.883 151.831 141.145 151.958 141.276 152.148C141.931 153.416 142.586 154.557 143.241 155.634C143.372 155.888 143.307 156.142 143.045 156.268C142.979 156.332 142.914 156.395 142.848 156.395ZM139.048 149.233C138.852 149.233 138.655 149.106 138.59 148.979C138 147.775 137.476 146.57 136.886 145.303C136.755 145.049 136.886 144.795 137.148 144.669C137.41 144.542 137.672 144.669 137.803 144.922C138.328 146.19 138.917 147.394 139.441 148.599C139.572 148.852 139.441 149.106 139.179 149.233C139.179 149.169 139.114 149.233 139.048 149.233ZM135.838 141.816C135.641 141.816 135.445 141.69 135.379 141.499C134.921 140.295 134.528 139.027 134.069 137.633C134.004 137.379 134.135 137.126 134.397 137.062C134.659 136.999 134.921 137.126 134.986 137.379C135.379 138.71 135.838 140.042 136.231 141.183C136.297 141.436 136.166 141.69 135.969 141.816C135.969 141.753 135.904 141.816 135.838 141.816ZM133.545 134.083C133.349 134.083 133.152 133.957 133.086 133.703C132.759 132.499 132.497 131.168 132.169 129.773C132.104 129.52 132.3 129.266 132.562 129.203C132.824 129.139 133.086 129.329 133.152 129.583C133.48 130.977 133.742 132.309 134.069 133.513C134.135 133.766 133.938 134.02 133.676 134.083C133.611 134.083 133.545 134.083 133.545 134.083ZM131.842 126.16C131.58 126.16 131.383 125.97 131.383 125.78C131.121 124.449 130.859 123.181 130.662 121.85C130.597 121.596 130.793 121.343 131.056 121.279C131.318 121.216 131.58 121.406 131.645 121.66C131.907 122.991 132.104 124.322 132.366 125.59C132.431 125.843 132.235 126.097 131.973 126.16C131.907 126.16 131.907 126.16 131.842 126.16ZM130.4 118.3C130.138 118.3 129.942 118.11 129.942 117.92C129.68 116.589 129.418 115.258 129.221 113.99C129.156 113.737 129.352 113.483 129.614 113.42C129.876 113.356 130.138 113.546 130.204 113.8C130.466 115.131 130.728 116.462 130.924 117.793C130.99 118.047 130.793 118.3 130.531 118.364C130.4 118.237 130.4 118.3 130.4 118.3ZM128.828 110.377C128.632 110.377 128.369 110.25 128.369 109.997C128.042 108.602 127.78 107.335 127.452 106.067C127.387 105.813 127.583 105.56 127.845 105.496C128.107 105.433 128.369 105.623 128.435 105.877C128.763 107.144 129.025 108.412 129.352 109.807C129.418 110.06 129.221 110.314 128.959 110.377C128.894 110.377 128.828 110.377 128.828 110.377ZM126.863 102.581C126.666 102.581 126.47 102.454 126.404 102.264C126.011 100.933 125.618 99.6649 125.159 98.4606C125.094 98.207 125.225 97.9535 125.487 97.8267C125.749 97.7633 126.011 97.8901 126.142 98.1436C126.535 99.348 126.994 100.679 127.387 102.01C127.452 102.264 127.321 102.517 127.059 102.581C126.994 102.517 126.928 102.581 126.863 102.581Z" fill="#030047"/>
<path d="M146.187 161.276C146.056 161.276 145.925 161.212 145.794 161.149C145.794 161.149 145.335 160.642 144.549 159.564C144.418 159.374 144.418 159.057 144.68 158.93C144.877 158.804 145.204 158.804 145.335 159.057C146.056 160.071 146.449 160.515 146.514 160.515C146.711 160.705 146.645 161.022 146.449 161.212C146.449 161.212 146.318 161.276 146.187 161.276Z" fill="#030047"/>
<path d="M87.028 179.912C85.3247 178.771 83.6213 177.63 81.918 176.489C82.049 176.299 82.18 176.172 82.3111 175.982C84.0144 177.123 85.7178 178.264 87.3556 179.341C87.6832 179.595 87.3556 180.102 87.028 179.912Z" fill="white"/>
<path d="M84.0807 182.067C82.7049 180.862 81.2636 179.721 79.8223 178.517C79.9533 178.39 80.1498 178.263 80.2808 178.073C81.6566 179.278 83.0979 180.419 84.5392 181.559C84.8668 181.94 84.4082 182.383 84.0807 182.067Z" fill="white"/>
<path d="M110.942 125.843C110.745 125.843 110.549 125.716 110.483 125.526C109.107 122.294 107.535 108.602 107.207 106.13C106.552 106.067 104.914 105.813 101.966 105.243C101.704 105.179 101.508 104.926 101.573 104.672C101.639 104.419 101.901 104.229 102.163 104.292C106.159 105.053 107.666 105.243 107.666 105.243L108.059 105.306L108.125 105.687C108.125 105.877 109.959 121.85 111.335 125.209C111.466 125.463 111.335 125.716 111.073 125.843C111.073 125.843 111.007 125.843 110.942 125.843Z" fill="#030047"/>
<g clip-path="url(#clip1_911_52806)">
<path d="M14.0884 24.4126L29.5755 32.7775" stroke="#D5006C" stroke-width="2" stroke-linecap="round" stroke-linejoin="round"/>
<path d="M29.5555 18.6787L34.4733 25.7288" stroke="#D5006C" stroke-width="2" stroke-linecap="round" stroke-linejoin="round"/>
<path d="M17.0138 39.6372L25.8345 39.8764" stroke="#D5006C" stroke-width="2" stroke-linecap="round" stroke-linejoin="round"/>
</g>
<path d="M86.2536 27.5242C87.6008 21.7716 93.0294 18.0011 98.4051 19.1103C103.781 20.2194 107.055 25.8455 105.784 31.6033L105.779 31.677C106.309 31.7874 106.828 32.045 107.276 32.2237C110.161 33.7537 110.32 36.7982 108.212 38.2811C106.35 39.559 103.318 40.0167 101.062 38.3079C98.8879 39.6384 96.3043 40.2748 93.7148 39.949C85.8591 39.1134 84.901 33.3504 86.2536 27.5242Z" fill="white"/>
<path d="M94.1184 40.7179C96.4128 40.8755 98.7616 40.297 100.848 39.1085C103.416 40.7646 106.459 40.1598 108.397 38.8871C109.533 38.0773 110.161 36.8626 110.106 35.527C109.985 34.0389 109.007 32.7139 107.455 31.8674C107.16 31.6992 106.789 31.5257 106.335 31.4206C106.848 28.6442 106.442 25.8048 104.999 23.486C103.567 21.02 101.234 19.3059 98.4368 18.6699C92.7606 17.4661 87.0098 21.4364 85.6409 27.4835C84.7192 31.6376 85.0154 34.9134 86.6933 37.1743C88.0924 39.0462 90.3872 40.2397 93.4301 40.6706C93.7415 40.618 93.889 40.7022 94.1184 40.7179ZM100.946 37.7834L100.624 37.9832C98.5263 39.319 96.1066 39.8186 93.6646 39.5769C90.9222 39.2406 88.9225 38.2154 87.7365 36.5801C86.2717 34.5558 85.9538 31.5744 86.8537 27.7148C88.1027 22.2514 93.209 18.6807 98.2788 19.7689C100.699 20.305 102.743 21.7772 104.115 24.0171C105.41 26.2518 105.826 28.944 105.243 31.6415L105.128 32.1515L105.653 32.3355C106.183 32.4459 106.631 32.6247 106.997 32.8718C108.253 33.55 108.947 34.5596 109.024 35.6007C109.107 36.5682 108.659 37.4253 107.774 37.9565C106.152 39.1029 103.427 39.5815 101.312 38.0305L100.946 37.7834Z" fill="#030047"/>
<path d="M93.1493 29.3924C93.0738 28.9913 93.3504 28.6073 93.767 28.5348C94.1837 28.4622 94.5827 28.7286 94.6582 29.1297C94.7337 29.5308 94.4571 29.9148 94.0404 29.9873C93.6238 30.0599 93.2248 29.7935 93.1493 29.3924Z" fill="#030047"/>
<path d="M87.8362 31.1109C88.4147 29.5228 89.2118 28.0978 90.2328 26.7622C90.4894 26.4099 91.1505 26.8252 90.8939 27.1775C89.8783 28.4396 89.1578 29.8698 88.5902 31.3106C88.3227 31.8102 87.6452 31.6157 87.8362 31.1109Z" fill="#030047"/>
<path d="M92.5184 21.8138C94.5674 23.2124 103.625 25.4623 101.371 29.9688C100.825 31.1151 100.017 31.6515 101.028 32.5348C102.208 33.2078 102.918 31.9247 102.918 31.9247C104.529 31.9614 106.195 32.2978 107.157 32.8078C110.384 28.6641 109.465 24.4576 107.389 23.4271C107.389 23.4271 107.559 12.7845 101.633 14.967C101.633 14.967 97.6749 6.11242 90.7501 11.4079C83.8253 16.7034 92.5184 21.8138 92.5184 21.8138Z" fill="#030047"/>
<path d="M102.317 34.8436C103.775 33.834 105.775 33.8233 107.152 34.9538C107.512 35.2745 107.086 35.8371 106.72 35.59C105.556 34.6962 104.027 34.5911 102.809 35.4693C102.41 35.6639 101.913 35.1118 102.317 34.8436Z" fill="#030047"/>
<path d="M136.936 92.7133C127.754 81.7242 123.151 72.2334 119.608 61.9275C113.959 45.7798 96.0372 35.5222 88.8115 54.263C81.5857 73.0038 89.7192 101.308 89.7192 101.308C89.7192 101.308 131.202 97.4987 136.936 92.7133Z" fill="#009BDD"/>
<path d="M89.2883 101.944L89.7526 101.902C91.4569 101.723 131.47 98.0347 137.286 93.181L137.696 92.8392L137.34 92.4448C127.377 80.5882 123.189 70.6819 120.078 61.8115C116.529 51.5792 108.108 43.8239 100.586 43.6772C96.8218 43.6406 91.5454 45.3499 88.129 54.1419C80.8322 72.8038 88.9548 101.256 89.0095 101.555L89.2883 101.944ZM136.171 92.6605C129.634 96.8728 94.7122 100.319 90.222 100.751C89.2646 97.0595 82.7656 71.6048 89.4074 54.5256C91.8797 48.1104 95.8171 44.7554 100.734 44.7971C107.797 44.9124 115.775 52.4154 119.127 62.1902C122.168 70.9818 126.362 80.8144 136.171 92.6605Z" fill="#009BDD"/>
<path d="M34.1242 37.9912L38.3251 55.7342C38.6125 56.8915 40.1364 57.3967 41.0427 56.5572L47.7932 50.8598C48.2844 50.4359 48.454 49.898 48.3103 49.3194L46.383 41.2833L44.1093 31.5764C43.8135 30.3458 42.2981 29.9139 41.3918 30.7534L34.6413 36.4508C34.1416 36.8013 33.9805 37.4126 34.1242 37.9912Z" fill="#030047"/>
<path d="M41.0028 50.1746L45.153 46.6861C45.4325 46.4334 45.5427 46.0504 45.5005 45.6836L42.7957 34.2408C42.6605 33.7355 42.0255 33.5806 41.6782 33.9148L37.1045 37.7457C36.825 37.9983 36.7148 38.3814 36.7569 38.7482L39.3265 49.6857C39.4787 50.3377 40.3591 50.6148 41.0028 50.1746Z" fill="#009BDD"/>
<path d="M35.3928 50.3295C35.3928 50.3295 30.7461 46.1487 34.0657 44.8282C35.463 44.2331 38.7817 44.9175 42.6087 45.3249C44.175 45.5285 45.4281 45.6915 46.732 45.6262L45.5401 40.6302C49.121 42.2519 54.4536 46.3593 58.7854 54.5094C67.9155 68.8289 88.2422 75.1933 91.5152 63.4078C93.474 56.2925 90.8865 47.8816 100.395 47.3839C112.198 46.715 119.405 85.8929 83.063 89.8558C55.8658 92.8402 51.8801 66.238 43.5499 62.8968C34.0091 59.0911 36.5253 55.4804 36.5253 55.4804C36.5253 55.4804 33.9185 52.9377 35.3928 50.3295Z" fill="white"/>
<path d="M83.0427 90.3782C104.99 88.0297 111.456 73.1552 110.462 61.158C109.72 52.6981 105.388 46.553 100.333 46.8711C92.8987 47.2953 92.3971 52.3241 91.8447 57.581C91.6746 59.4556 91.4451 61.485 90.9618 63.3189C90.0969 66.5301 87.7761 68.4863 84.3553 68.9266C84.2029 68.9429 84.1267 68.951 83.9743 68.9673C76.9633 69.7175 65.7043 64.3879 59.2989 54.3063C54.2817 44.893 48.1615 41.3153 45.7912 40.1581L44.7331 39.6773L46.0517 45.1053C45.1204 45.0565 44.189 45.0076 43.0884 44.8284L42.7751 44.7876C41.9962 44.7225 41.2088 44.584 40.4299 44.5188C37.5343 44.1604 35.1806 43.8182 33.9273 44.3236C32.818 44.7393 32.5128 45.4402 32.4195 45.97C32.0717 47.6408 34.0098 49.7353 34.7885 50.4688C33.8138 52.7265 35.2863 54.7966 35.9125 55.5463C35.7345 56.0109 35.5818 56.6956 35.9201 57.6247C36.6221 59.703 39.0852 61.6671 43.445 63.3539C45.8746 64.3563 48.1086 67.6815 50.6386 71.569C56.2741 80.3221 64.1436 92.4004 83.0427 90.3782ZM99.689 47.9796C99.9176 47.9551 100.146 47.9307 100.375 47.9062C104.668 47.6696 108.577 53.4887 109.234 61.2151C110.246 72.6907 103.941 86.954 82.9161 89.2779L82.84 89.286C64.6267 91.2349 56.9603 79.5804 51.4179 70.9659C48.7947 66.9398 46.4592 63.4027 43.7079 62.2862C38.7725 60.2897 37.2492 58.4478 36.8771 57.2253C36.5388 56.2962 36.9285 55.6604 36.9285 55.6604L37.1911 55.2611L36.8441 54.9269C36.7595 54.8617 34.5843 52.7183 35.8722 50.5013L36.0587 50.1101L35.7201 49.8494C34.6875 48.9203 33.1726 47.1517 33.4355 46.084C33.4948 45.9292 33.5288 45.5543 34.2656 45.2527C35.2225 44.8532 37.6525 45.1873 40.1586 45.5132C40.9375 45.5783 41.7249 45.7169 42.5038 45.782L42.817 45.8227C44.2987 45.9612 45.4755 46.1323 46.7033 46.0752L47.3976 46.0752L46.3495 41.6578C48.9059 43.0921 53.4514 46.3927 57.5042 53.4588L57.3433 53.4017L58.198 54.7954C64.138 64.1842 75.6335 70.8994 84.0161 70.0024C84.1686 69.9861 84.321 69.9698 84.3972 69.9617C88.343 69.391 90.9433 67.1821 91.9863 63.5063C92.5289 61.5176 92.7668 59.5615 92.9284 57.6135C93.5062 52.5767 93.9735 48.5911 99.689 47.9796Z" fill="#030047"/>
<path d="M35.8985 50.0526C38.1673 50.9979 40.5379 51.4868 43.0187 51.5926C43.4844 51.617 43.4925 52.3587 43.0268 52.3343C40.3936 52.2448 37.9384 51.6907 35.5088 50.6883C35.1024 50.5091 35.416 49.8815 35.8985 50.0526Z" fill="#030047"/>
<path d="M37.4698 55.0086C39.2052 56.011 41.1947 56.5406 43.2607 56.3938C43.7179 56.3449 43.8023 57.0784 43.3451 57.1273C41.1182 57.2171 39.0609 56.769 37.1563 55.6362C36.75 55.4569 37.0551 54.756 37.4698 55.0086Z" fill="#030047"/>
<path d="M97.7195 85.8373C97.7957 85.8292 97.8719 85.821 97.9397 85.7395C98.2276 85.5602 98.3463 85.2505 98.1601 84.9734L88.4889 68.6326C88.3028 68.3555 87.9811 68.2414 87.6931 68.4207C87.4052 68.6001 87.2865 68.9098 87.4727 69.1869L97.1439 85.5277C97.2454 85.7396 97.4909 85.8618 97.7195 85.8373Z" fill="#030047"/>
<path d="M100.165 83.6452C100.241 83.637 100.318 83.6289 100.385 83.5474C100.673 83.368 100.716 83.0665 100.606 82.7812L90.7734 67.0517C90.5873 66.7746 90.274 66.7339 89.9776 66.8398C89.6897 67.0192 89.6472 67.3207 89.7572 67.606L99.5895 83.3355C99.691 83.5474 99.9365 83.6697 100.165 83.6452Z" fill="#030047"/>
<mask id="path-45-inside-1_911_52806" fill="white">
<path fill-rule="evenodd" clip-rule="evenodd" d="M56.5392 18.8557C58.4585 26.3391 63.4302 31.708 68.0338 31.558L71.9398 46.4173L73.5573 45.277L69.934 31.1612C74.2789 29.4215 76.2081 22.3004 74.2462 14.6513C72.1702 6.55717 66.5235 0.936817 61.6338 2.09785C56.7442 3.25888 54.4632 10.7616 56.5392 18.8557ZM68.5636 29.376C64.496 30.3439 59.7845 25.6036 58.0401 18.7884C56.2957 11.9732 58.179 5.66387 62.2466 4.69606C66.3142 3.72824 71.0258 8.46847 72.7702 15.2837C74.5146 22.0988 72.6312 28.4082 68.5636 29.376Z"/>
</mask>
<path fill-rule="evenodd" clip-rule="evenodd" d="M56.5392 18.8557C58.4585 26.3391 63.4302 31.708 68.0338 31.558L71.9398 46.4173L73.5573 45.277L69.934 31.1612C74.2789 29.4215 76.2081 22.3004 74.2462 14.6513C72.1702 6.55717 66.5235 0.936817 61.6338 2.09785C56.7442 3.25888 54.4632 10.7616 56.5392 18.8557ZM68.5636 29.376C64.496 30.3439 59.7845 25.6036 58.0401 18.7884C56.2957 11.9732 58.179 5.66387 62.2466 4.69606C66.3142 3.72824 71.0258 8.46847 72.7702 15.2837C74.5146 22.0988 72.6312 28.4082 68.5636 29.376Z" fill="#030047"/>
<path d="M68.0338 31.558L69.0144 31.2958L68.817 30.5448L68.0189 30.5708L68.0338 31.558ZM56.5392 18.8557L57.5213 18.599L56.5392 18.8557ZM71.9398 46.4173L70.9592 46.6795L71.3221 48.0603L72.5222 47.2143L71.9398 46.4173ZM73.5573 45.277L74.1397 46.074L74.7071 45.674L74.5393 45.0201L73.5573 45.277ZM69.934 31.1612L69.565 30.2483L68.7369 30.5799L68.952 31.418L69.934 31.1612ZM74.2462 14.6513L75.2283 14.3946L74.2462 14.6513ZM61.6338 2.09785L61.412 1.13829L61.412 1.13829L61.6338 2.09785ZM58.0401 18.7884L59.0222 18.5322L58.0401 18.7884ZM68.5636 29.376L68.3414 28.4166L68.5636 29.376ZM62.2466 4.69606L62.0244 3.73662L62.2466 4.69606ZM72.7702 15.2837L71.788 15.5399L72.7702 15.2837ZM68.0189 30.5708C66.133 30.6322 63.9991 29.5535 62.0417 27.4053C60.103 25.2776 58.4474 22.2101 57.5213 18.599L55.5571 19.1124C56.5503 22.9847 58.3402 26.3434 60.5181 28.7335C62.6772 31.1031 65.331 32.6338 68.0486 32.5452L68.0189 30.5708ZM72.9204 46.1551L69.0144 31.2958L67.0531 31.8202L70.9592 46.6795L72.9204 46.1551ZM72.9749 44.48L71.3574 45.6203L72.5222 47.2143L74.1397 46.074L72.9749 44.48ZM68.952 31.418L72.5753 45.5338L74.5393 45.0201L70.916 30.9043L68.952 31.418ZM73.2642 14.908C74.2112 18.6002 74.2067 22.1238 73.4754 24.8926C72.7372 27.6876 71.3138 29.5481 69.565 30.2483L70.3031 32.074C72.8991 31.0346 74.6127 28.4647 75.4349 25.352C76.2639 22.213 76.2431 18.3515 75.2283 14.3946L73.2642 14.908ZM61.8556 3.0574C63.8099 2.59335 66.104 3.45021 68.2661 5.60218C70.4064 7.73254 72.2618 10.9998 73.2642 14.908L75.2283 14.3946C74.1547 10.2086 72.1487 6.61868 69.7242 4.20559C67.3215 1.81412 64.3474 0.441316 61.412 1.13829L61.8556 3.0574ZM57.5213 18.599C56.5187 14.6901 56.5832 10.9737 57.4442 8.14148C58.3126 5.28498 59.9139 3.51845 61.8556 3.0574L61.412 1.13829C58.4641 1.83827 56.48 4.40363 55.5046 7.61229C54.5217 10.8452 54.4837 14.9273 55.5571 19.1124L57.5213 18.599ZM57.0579 19.0447C57.9652 22.5893 59.6531 25.6383 61.6979 27.6955C63.7194 29.7293 66.2557 30.9375 68.7859 30.3355L68.3414 28.4166C66.804 28.7824 64.9507 28.1044 63.1634 26.3063C61.3994 24.5315 59.8594 21.8028 59.0222 18.5322L57.0579 19.0447ZM62.0244 3.73662C59.4817 4.3416 57.8052 6.56722 56.9926 9.28965C56.172 12.0388 56.1508 15.5008 57.0579 19.0447L59.0222 18.5322C58.1849 15.2608 58.2333 12.1606 58.9351 9.80931C59.6449 7.43131 60.9439 6.01833 62.4689 5.6555L62.0244 3.73662ZM73.7524 15.0274C72.8451 11.4828 71.1571 8.43379 69.1124 6.37663C67.0908 4.34276 64.5546 3.1346 62.0244 3.73662L62.4689 5.6555C64.0063 5.2897 65.8596 5.96774 67.6468 7.76583C69.4109 9.54064 70.9509 12.2693 71.788 15.5399L73.7524 15.0274ZM68.7859 30.3355C71.3285 29.7305 73.005 27.5049 73.8177 24.7824C74.6383 22.0333 74.6594 18.5713 73.7524 15.0274L71.788 15.5399C72.6253 18.8112 72.577 21.9115 71.8751 24.2628C71.1653 26.6408 69.8663 28.0538 68.3414 28.4166L68.7859 30.3355Z" fill="#030047" mask="url(#path-45-inside-1_911_52806)"/>
<path d="M65.7388 7.82126C65.7475 7.74863 65.8001 7.71769 65.857 7.65044C66.0145 7.55764 66.2071 7.57917 66.391 7.67333C68.7421 9.62908 70.5463 12.8854 71.6984 17.0995C71.7291 17.2501 71.6153 17.3846 71.4183 17.3994C71.2213 17.4142 71.0375 17.32 71.0068 17.1694C69.9422 13.0388 68.1731 9.89672 65.9096 8.02436C65.7695 7.9719 65.7301 7.89389 65.7388 7.82126Z" fill="#D5006C"/>
<path d="M25.0384 81.6803C25.2482 81.6795 25.4159 81.7694 25.5417 81.9501C25.6675 82.1307 25.7309 82.3613 25.7318 82.6418L25.7299 82.8952C25.7207 83.196 25.6462 83.4405 25.5065 83.6289C25.3685 83.8172 25.1954 83.9117 24.9872 83.9124C24.7857 83.9172 24.6189 83.8295 24.4867 83.6492C24.3561 83.4688 24.2904 83.2394 24.2895 82.961L24.2944 82.7174C24.3004 82.4167 24.3716 82.1701 24.5078 81.9775C24.6457 81.7849 24.8225 81.6858 25.0384 81.6803ZM24.6901 82.9492C24.6858 83.0898 24.7084 83.2071 24.7578 83.3013C24.8072 83.3933 24.8783 83.4394 24.9712 83.4396C25.0673 83.4396 25.1482 83.3909 25.2138 83.2936C25.2794 83.1942 25.3172 83.0675 25.3273 82.9136L25.3362 82.6566C25.3404 82.5139 25.3178 82.3955 25.2683 82.3013C25.2189 82.2071 25.1469 82.1599 25.0524 82.1599C24.9547 82.1599 24.8725 82.213 24.8056 82.3191C24.7387 82.423 24.7028 82.5562 24.698 82.7187L24.6901 82.9492ZM26.4602 84.3154C26.6684 84.3147 26.8353 84.4046 26.9611 84.5852C27.0885 84.7657 27.1526 84.9941 27.1533 85.2703L27.1515 85.5269C27.1437 85.8233 27.07 86.0678 26.9306 86.2605C26.791 86.4511 26.6172 86.5467 26.409 86.5474C26.2107 86.5521 26.0456 86.4665 25.9136 86.2905C25.7817 86.1146 25.7134 85.882 25.7088 85.5928L25.7103 85.379C25.7126 85.0676 25.7826 84.8144 25.9203 84.6196C26.0596 84.4225 26.2395 84.3211 26.4602 84.3154ZM26.1093 85.5811C26.1088 85.7324 26.1339 85.8529 26.1847 85.9427C26.2355 86.0303 26.3049 86.0742 26.393 86.0746C26.4907 86.0745 26.5709 86.0281 26.6336 85.9354C26.6977 85.8403 26.7354 85.7104 26.7465 85.5454L26.7577 85.2851C26.758 85.1272 26.7328 85.0056 26.6821 84.9202C26.6315 84.8348 26.5621 84.792 26.474 84.7916C26.3716 84.7919 26.2877 84.8451 26.2225 84.9511C26.1571 85.0549 26.1219 85.1859 26.1169 85.344L26.1093 85.5811ZM24.8923 86.1826L24.5919 85.9365L26.5168 82.1423L26.8171 82.3884L24.8923 86.1826Z" fill="#F9FBFE"/>
</g>
<defs>
<clipPath id="clip0_911_52806">
<rect width="200" height="199.997" fill="white"/>
</clipPath>
<clipPath id="clip1_911_52806">
<rect width="30.597" height="29.5957" fill="white" transform="matrix(-0.985587 0.176174 0.18846 0.980769 38.6738 13.2961)"/>
</clipPath>
</defs>
</svg>
