<svg width="200" height="200" viewBox="0 0 200 200" fill="none" xmlns="http://www.w3.org/2000/svg">
<path opacity="0.4" d="M101.093 186.645C149.185 186.616 188.168 182.654 188.165 177.796C188.162 172.938 149.174 169.024 101.083 169.053C52.9911 169.082 14.0078 173.044 14.0108 177.902C14.0137 182.76 53.0019 186.674 101.093 186.645Z" fill="#E7EBF3"/>
<path d="M111.853 177.519H36.3296C36.3296 177.519 25.5041 160.215 34.7101 153.311C47.0699 144.02 64.2884 155.442 64.7146 155.783C64.4589 155.101 30 127.603 53.5 112.603C82 94.4119 111.853 177.519 111.853 177.519Z" fill="#E4E4EF"/>
<path d="M92.2471 177.519H90.9685C88.0704 165.244 82.1888 144.787 73.2385 132.853C72.9828 132.597 73.0681 132.171 73.409 132.001C73.6647 131.83 74.0909 131.83 74.2614 132.086C83.3821 144.275 89.2637 165.159 92.2471 177.519Z" fill="white"/>
<path d="M93.6961 153.993C93.3551 153.993 93.0142 153.737 93.0142 153.311V142.571C93.0142 142.23 93.2699 141.889 93.6961 141.889C94.1223 141.889 94.378 142.144 94.378 142.571V153.396C94.378 153.737 94.037 153.993 93.6961 153.993Z" fill="white"/>
<path d="M56.2759 177.519H54.7416C50.9058 171.808 48.0928 167.034 48.0076 167.034C47.8371 166.779 47.9224 166.353 48.2633 166.182C48.6043 166.012 48.9452 166.097 49.1157 166.438C49.1157 166.438 52.1844 171.552 56.2759 177.519Z" fill="white"/>
<path d="M82.0343 150.103H80.5C76.6642 144.392 56.1705 122.041 56.0852 122.041C55.9148 121.785 56 121.359 56.341 121.189C56.6819 121.018 57.0229 121.103 57.1934 121.444C57.1934 121.444 77.9428 144.137 82.0343 150.103Z" fill="white"/>
<path d="M164.295 177.947H131C131 177.947 136.103 132.439 162.957 137.374C183.285 141.139 164.295 177.947 164.295 177.947Z" fill="#E4E4EF"/>
<path d="M158.691 149.839C153.086 158.037 149.321 169.665 147.146 177.947H145.891C148.066 169.582 151.914 157.535 157.687 149.17C157.854 148.835 158.272 148.835 158.523 149.002C158.858 149.17 158.858 149.588 158.691 149.839Z" fill="white"/>
<path d="M154.758 169.666C154.591 169.666 154.423 169.582 154.256 169.415C154.005 169.164 154.089 168.745 154.34 168.494L163.96 160.38C164.211 160.129 164.629 160.212 164.88 160.463C165.131 160.714 165.048 161.133 164.797 161.384L155.176 169.498C155.009 169.582 154.925 169.666 154.758 169.666Z" fill="white"/>
<path d="M136.534 178C140.091 178 143 175.003 143 171.339V50.9868V37.6591C143 33.9946 140.091 31 136.534 31H70.4646C66.9058 31 63.9995 33.9946 63.9995 37.6591V171.339C63.9995 175.003 66.9058 178 70.4646 178H136.534Z" fill="white" stroke="#030047" stroke-width="2" stroke-miterlimit="10" stroke-linecap="round" stroke-linejoin="round"/>
<circle cx="104" cy="42" r="3" fill="#030047"/>
<path d="M63.9995 152.004H142.862V171.317C142.862 174.873 139.98 177.755 136.424 177.755H70.4373C66.8818 177.755 63.9995 174.873 63.9995 171.317V152.004Z" fill="#009BDD" stroke="#030047" stroke-width="2"/>
<path d="M91.9995 165H116" stroke="white" stroke-width="4.82831" stroke-miterlimit="10" stroke-linecap="round" stroke-linejoin="round"/>
<path d="M80.0205 36.0562C77.0205 36.0562 68.5205 34.5562 69.0205 47.0562" stroke="#030047" stroke-width="2" stroke-linecap="round" stroke-linejoin="round"/>
<path d="M118.484 114.815C114.548 111.173 109.381 109.153 104.018 109.159C98.6558 109.153 93.4889 111.173 89.5531 114.815C89.3431 115.009 89.1734 115.243 89.0536 115.502C88.9339 115.762 88.8664 116.043 88.8551 116.328C88.8437 116.614 88.8888 116.899 88.9876 117.167C89.0865 117.435 89.2372 117.681 89.4311 117.891C89.6251 118.101 89.8585 118.271 90.118 118.391C90.3776 118.511 90.6582 118.578 90.9438 118.589C91.2294 118.601 91.5145 118.556 91.7827 118.457C92.0509 118.358 92.2971 118.207 92.5071 118.013C95.6419 115.119 99.7518 113.512 104.018 113.512C108.285 113.512 112.395 115.119 115.53 118.013C115.954 118.405 116.516 118.612 117.093 118.59C117.67 118.567 118.214 118.316 118.606 117.891C118.997 117.467 119.205 116.905 119.182 116.328C119.159 115.751 118.908 115.207 118.484 114.815Z" fill="#D5006C"/>
<path d="M100.99 104.094L102.764 104.086C104.239 104.077 105.65 103.484 106.688 102.436C107.726 101.389 108.306 99.9719 108.3 98.4971L108.228 83.0186C108.225 82.4413 107.993 81.8888 107.583 81.4825C107.173 81.0762 106.618 80.8494 106.041 80.8521C105.464 80.8548 104.911 81.0868 104.505 81.4969C104.099 81.907 103.872 82.4617 103.875 83.039L103.947 98.5175C103.948 98.8381 103.822 99.1461 103.596 99.3738C103.371 99.6016 103.064 99.7306 102.743 99.7324L100.97 99.7407C100.393 99.7434 99.84 99.9753 99.4337 100.385C99.0274 100.796 98.8006 101.35 98.8033 101.928C98.806 102.505 99.038 103.057 99.4481 103.464C99.8582 103.87 100.413 104.097 100.99 104.094Z" fill="#D5006C"/>
<path d="M91.2117 84.2122C91.8812 83.5427 91.8812 82.4573 91.2117 81.7878C90.5422 81.1183 89.4568 81.1183 88.7873 81.7878L91.2117 84.2122ZM88.7873 92.2122C89.4568 92.8817 90.5422 92.8817 91.2117 92.2122C91.8812 91.5427 91.8812 90.4573 91.2117 89.7878L88.7873 92.2122ZM86.1207 87.1212L84.9085 88.3334L86.1207 87.1212ZM88.7873 81.7878L84.9085 85.6666L87.3329 88.091L91.2117 84.2122L88.7873 81.7878ZM84.9085 88.3334L88.7873 92.2122L91.2117 89.7878L87.3329 85.909L84.9085 88.3334ZM84.9085 85.6666C84.1721 86.403 84.1721 87.597 84.9085 88.3334L87.3329 85.909C87.9354 86.5116 87.9354 87.4884 87.3329 88.091L84.9085 85.6666Z" fill="#D5006C"/>
<path d="M81.9995 83L85.8783 86.8788C85.9452 86.9457 85.9452 87.0543 85.8783 87.1212L81.9995 91" stroke="#D5006C" stroke-width="3.42857" stroke-linecap="round" stroke-linejoin="round"/>
<path d="M128.212 84.2122C128.881 83.5427 128.881 82.4573 128.212 81.7878C127.542 81.1183 126.457 81.1183 125.787 81.7878L128.212 84.2122ZM125.787 92.2122C126.457 92.8817 127.542 92.8817 128.212 92.2122C128.881 91.5427 128.881 90.4573 128.212 89.7878L125.787 92.2122ZM123.121 87.1212L121.909 88.3334L123.121 87.1212ZM125.787 81.7878L121.909 85.6666L124.333 88.091L128.212 84.2122L125.787 81.7878ZM121.909 88.3334L125.787 92.2122L128.212 89.7878L124.333 85.909L121.909 88.3334ZM121.909 85.6666C121.172 86.403 121.172 87.597 121.909 88.3334L124.333 85.909C124.935 86.5116 124.935 87.4884 124.333 88.091L121.909 85.6666Z" fill="#D5006C"/>
<path d="M119 83L122.878 86.8788C122.945 86.9457 122.945 87.0543 122.878 87.1212L119 91" stroke="#D5006C" stroke-width="3.42857" stroke-linecap="round" stroke-linejoin="round"/>
<path d="M157.8 17L148.8 24.5" stroke="#D5006C" stroke-width="2" stroke-linecap="round" stroke-linejoin="round"/>
<path d="M147.055 15L144.745 20.3415" stroke="#D5006C" stroke-width="2" stroke-linecap="round" stroke-linejoin="round"/>
<path d="M157.8 27.6084L152.11 28.8317" stroke="#D5006C" stroke-width="2" stroke-linecap="round" stroke-linejoin="round"/>
</svg>
