<svg width="200" height="200" viewBox="0 0 200 200" fill="none" xmlns="http://www.w3.org/2000/svg">
<g clip-path="url(#clip0_1370_67574)">
<path opacity="0.4" d="M99.7004 192.637C154.868 192.603 199.588 188.638 199.585 183.78C199.582 178.922 154.857 175.011 99.6896 175.044C44.5217 175.078 -0.198245 179.043 -0.195274 183.901C-0.192303 188.759 44.5325 192.67 99.7004 192.637Z" fill="#E7EBF3"/>
<path d="M69.2035 180H14.4495C14.4495 180 6.60105 165.136 13.2754 159.205C22.2362 151.223 34.7196 161.035 35.0286 161.328C34.8432 160.742 9.86054 137.121 26.898 124.236C47.5605 108.609 69.2035 180 69.2035 180Z" fill="#E4E4EF"/>
<path d="M54.9897 180H54.0627C51.9615 169.456 47.6974 151.882 41.2085 141.631C41.0231 141.412 41.0849 141.046 41.3321 140.899C41.5175 140.753 41.8265 140.753 41.9501 140.972C48.5626 151.443 52.8267 169.383 54.9897 180Z" fill="white"/>
<path d="M56.0399 159.79C55.7927 159.79 55.5455 159.571 55.5455 159.205V149.979C55.5455 149.686 55.7309 149.393 56.0399 149.393C56.3489 149.393 56.5343 149.612 56.5343 149.979V159.278C56.5343 159.571 56.2871 159.79 56.0399 159.79Z" fill="white"/>
<path d="M28.9099 180H27.7975C25.0166 175.094 22.9772 170.994 22.9154 170.994C22.7918 170.774 22.8536 170.408 23.1008 170.261C23.348 170.115 23.5952 170.188 23.7188 170.481C23.7188 170.481 25.9436 174.874 28.9099 180Z" fill="white"/>
<path d="M47.5849 156.45H46.4725C43.6916 151.544 28.8337 132.344 28.7719 132.344C28.6483 132.124 28.71 131.758 28.9572 131.611C29.2044 131.465 29.4516 131.538 29.5752 131.831C29.5752 131.831 44.6185 151.324 47.5849 156.45Z" fill="white"/>
<path d="M177.597 180H144.586C144.586 180 149.645 125.541 176.27 131.448C196.425 135.953 177.597 180 177.597 180Z" fill="#E4E4EF"/>
<path d="M172.276 146.141C166.671 155.854 162.907 169.632 160.732 179.445H159.477C161.652 169.533 165.5 155.26 171.272 145.348C171.439 144.951 171.858 144.951 172.109 145.149C172.443 145.348 172.443 145.843 172.276 146.141Z" fill="white"/>
<path d="M168.344 169.632C168.176 169.632 168.009 169.533 167.842 169.335C167.591 169.037 167.674 168.542 167.925 168.245L177.546 158.63C177.797 158.333 178.215 158.432 178.466 158.729C178.717 159.026 178.633 159.522 178.382 159.819L168.762 169.434C168.595 169.533 168.511 169.632 168.344 169.632Z" fill="white"/>
<path d="M32.705 102.029L21.4586 100.706L21.7962 107.106L14.6088 110.686L28.5555 109.31L26.745 104.33L32.705 102.029Z" fill="#D5006C"/>
<path d="M27.1155 33.0293L38.3619 31.7059L38.0243 38.1062L45.2116 41.6858L31.2649 40.3102L33.0754 35.3304L27.1155 33.0293Z" fill="#D5006C"/>
<path d="M71.1603 80.1745C77.5831 48.1457 100.933 42.167 115 42.167C137.433 42.167 149.987 59.7534 154.075 73.7565C158.162 87.7595 155.243 122.767 149.988 136.187C145.783 146.922 141.618 144.55 140.061 142.021C139.283 139.882 135.623 136.77 127.215 141.438C118.807 146.106 111.644 142.994 109.114 140.854C108.141 140.076 105.494 138.521 102.691 138.521C99.8883 138.521 94.9057 141.243 92.7647 142.605C89.4559 143.577 81.7872 144.589 77.5831 140.854C73.379 137.12 68.8245 138.91 67.0728 140.271C65.1265 141.243 60.8835 142.488 59.4821 139.688C58.0808 136.887 60.0661 131.908 61.2339 129.769C64.1534 122.962 69.9925 107.247 69.9925 98.8453C69.9925 90.4434 69.9925 87.6667 71.1603 80.1745Z" fill="white" stroke="#030047" stroke-width="2"/>
<path d="M92.4298 57.9551C89.6452 58.9389 83.7728 62.7255 82.5606 70.0008" stroke="#030047" stroke-width="2" stroke-linecap="round" stroke-linejoin="round"/>
<ellipse cx="114.886" cy="79.6458" rx="10.5" ry="15" fill="#E4E4EF"/>
<circle cx="115.386" cy="82.6458" r="4" fill="black"/>
<mask id="mask0_1370_67574" style="mask-type:alpha" maskUnits="userSpaceOnUse" x="97" y="99" width="35" height="19">
<path d="M97.0663 102.553C98.2247 98.3267 130.118 99.487 131.505 101.616C132.644 103.375 131.925 117.083 114.71 117.453C114.698 117.495 97.478 117.698 97.0663 102.553Z" fill="#DB846F"/>
</mask>
<g mask="url(#mask0_1370_67574)">
<rect width="36.3698" height="18.8149" transform="matrix(-0.999999 -0.00134071 0.00111991 -0.999999 132.212 117.595)" fill="#030047"/>
<path d="M129.807 99.9824C129.807 99.9824 116.559 105.883 96.2994 102.194C96.2994 102.194 100.004 96.1132 110.566 95.1143C117.358 94.3361 124.203 96.0678 129.807 99.9824Z" fill="#FA96AB"/>
</g>
<path d="M54.045 81.6055C54.1886 81.7454 54.2625 81.9567 54.2646 82.0981C54.2711 82.5223 53.9229 82.8798 53.4987 82.8845L41.4072 82.9489C40.983 82.9537 40.6241 82.6041 40.6177 82.1799C40.6112 81.7556 40.9594 81.3982 41.3836 81.3934L53.4751 81.329C53.6883 81.3974 53.9015 81.4657 54.045 81.6055Z" fill="#A0AFCA"/>
<path d="M50.8512 92.3264C50.9948 92.4662 51.0687 92.6775 51.0708 92.819C51.0773 93.2432 50.7291 93.6007 50.3048 93.6054L29.4459 93.7677C29.0217 93.7725 28.6628 93.4229 28.6564 92.9987C28.65 92.5744 28.9981 92.2169 29.4224 92.2122L50.2813 92.0499C50.4945 92.1182 50.7077 92.1865 50.8512 92.3264Z" fill="#A0AFCA"/>
<path d="M70.4674 40.4507C70.611 40.5905 70.6849 40.8019 70.687 40.9433C70.6935 41.3675 70.3453 41.725 69.9211 41.7297L53.4459 41.8431C53.0216 41.8478 52.6628 41.4983 52.6563 41.074C52.6499 40.6498 52.9981 40.2923 53.4223 40.2876L69.8975 40.1742C70.1107 40.2426 70.3239 40.3109 70.4674 40.4507Z" fill="#A0AFCA"/>
<path d="M88.2963 29.484C88.4398 29.6238 88.5137 29.8351 88.5159 29.9765C88.5223 30.4008 88.1741 30.7582 87.7499 30.763L75.6584 30.8274C75.2342 30.8321 74.8753 30.4825 74.8689 30.0583C74.8625 29.6341 75.2107 29.2766 75.6349 29.2719L87.7264 29.2075C88.0113 29.3457 88.1527 29.3441 88.2963 29.484Z" fill="#A0AFCA"/>
<path d="M77.1947 47.0145C77.3382 47.1543 77.4122 47.3656 77.4143 47.507C77.4207 47.9313 77.0726 48.2888 76.6483 48.2935L64.5568 48.3579C64.1326 48.3626 63.7737 48.013 63.7673 47.5888C63.7609 47.1646 64.1091 46.8071 64.5333 46.8024L76.6248 46.738C76.838 46.8063 77.0512 46.8747 77.1947 47.0145Z" fill="#A0AFCA"/>
<path d="M187.8 29.0001L178.8 36.5001" stroke="#D5006C" stroke-width="2" stroke-linecap="round" stroke-linejoin="round"/>
<path d="M177.055 27.0001L174.745 32.3416" stroke="#D5006C" stroke-width="2" stroke-linecap="round" stroke-linejoin="round"/>
<path d="M187.8 39.6085L182.11 40.8317" stroke="#D5006C" stroke-width="2" stroke-linecap="round" stroke-linejoin="round"/>
</g>
<defs>
<clipPath id="clip0_1370_67574">
<rect width="200" height="200" fill="white"/>
</clipPath>
</defs>
</svg>
